<?xml version="1.0" standalone="no"?>
<!DOCTYPE svg PUBLIC "-//W3C//DTD SVG 20010904//EN"
 "http://www.w3.org/TR/2001/REC-SVG-20010904/DTD/svg10.dtd">
<svg version="1.0" xmlns="http://www.w3.org/2000/svg"
 width="512.000000pt" height="512.000000pt" viewBox="0 0 512.000000 512.000000"
 preserveAspectRatio="xMidYMid meet">
<metadata>
Created by potrace 1.11, written by Peter Selinger 2001-2013
</metadata>
<g transform="translate(0.000000,512.000000) scale(0.100000,-0.100000)"
fill="#000000" stroke="none">
<path d="M304 5088 c3 -18 96 -1054 207 -2303 111 -1249 202 -2271 204 -2273
1 -1 416 -117 922 -258 l920 -255 924 256 c507 140 924 257 925 258 1 1 92
1023 203 2272 111 1249 204 2285 207 2303 l5 32 -2261 0 -2261 0 5 -32z m3669
-955 c-3 -27 -15 -154 -26 -283 l-22 -235 -1083 -3 -1084 -2 6 -48 c3 -26 15
-150 26 -277 11 -126 23 -236 25 -243 4 -10 203 -11 1030 -6 l1025 7 0 -29 c0
-67 -151 -1709 -158 -1715 -9 -8 -1131 -319 -1151 -319 -21 0 -1144 312 -1154
320 -5 5 -87 836 -87 888 0 1 128 2 285 2 265 0 285 -1 285 -17 0 -36 38 -435
42 -437 1 -2 142 -40 313 -86 l309 -82 316 84 315 85 26 284 c14 156 29 321
33 367 l7 82 -978 0 -978 0 -73 828 c-40 455 -75 839 -78 855 l-6 27 1420 0
1419 0 -4 -47z"/>
</g>
</svg>
